<?xml version="1.0" encoding="UTF-8" standalone="no"?>
<!-- Created with Inkscape (http://www.inkscape.org/) -->

<svg
   width="309.03mm"
   height="685.81299mm"
   viewBox="0 0 309.03 685.81299"
   version="1.1"
   id="svg1"
   sodipodi:docname="body-back.svg"
   inkscape:version="1.3.2 (091e20ef0f, 2023-11-25, custom)"
   xmlns:inkscape="http://www.inkscape.org/namespaces/inkscape"
   xmlns:sodipodi="http://sodipodi.sourceforge.net/DTD/sodipodi-0.dtd"
   xmlns="http://www.w3.org/2000/svg"
   xmlns:svg="http://www.w3.org/2000/svg">
  <sodipodi:namedview
     id="namedview1"
     pagecolor="#ffffff"
     bordercolor="#666666"
     borderopacity="1.0"
     inkscape:showpageshadow="2"
     inkscape:pageopacity="0.0"
     inkscape:pagecheckerboard="0"
     inkscape:deskcolor="#d1d1d1"
     inkscape:document-units="mm"
     inkscape:zoom="0.32064007"
     inkscape:cx="194.92261"
     inkscape:cy="1308.3206"
     inkscape:window-width="1295"
     inkscape:window-height="1335"
     inkscape:window-x="26"
     inkscape:window-y="23"
     inkscape:window-maximized="0"
     inkscape:current-layer="svg1" />
  <defs
     id="defs1" />
  <g
     id="layer1"
     transform="matrix(0.99999757,0,0,1.0016473,11.533359,194.91265)">
    <g
       id="g74"
       transform="matrix(0.26458333,0,0,0.26458333,-300.9043,-197.23454)">
      <path
         id="path3"
         d="m 1827.7866,273.74672 c -3.0533,-3.90666 -8.88,-8.33333 -19.2266,-8.2 -0.1734,2.66667 -0.4134,5.34667 -0.72,8.04 6.16,-0.28 10.6933,1.36 13.6266,5.10667 5.12,6.56 5.4534,19.58667 0.8667,34.01333 -6.6,20.73334 -21.28,32.58667 -27.76,32.94667 -0.5733,2.73333 -1.24,5.41333 -2.0267,8.06667 0.5467,0.0667 1.1067,0.12 1.6667,0.12 12.5067,0 29.08,-17.68 35.7733,-38.70667 5.4667,-17.17333 4.64,-32.64 -2.2,-41.38667"
         style="fill:#4d5051;fill-opacity:1;fill-rule:nonzero;stroke:none;stroke-width:0.133333" />
      <path
         id="path4"
         d="m 1558.24,345.08006 c -7.2134,-2.68 -19.3867,-14.08 -25.2134,-32.37334 -4.5866,-14.42666 -4.2533,-27.45333 0.8667,-34 2.72,-3.49333 6.76,-5.2 12.2933,-5.2 0.5334,0 1.0934,0.0267 1.6534,0.0533 -0.24,-2.65334 -0.4134,-5.33334 -0.5334,-8.01334 -10.6666,-0.30666 -16.6266,4.22667 -19.7466,8.2 -6.8267,8.74667 -7.6534,24.22667 -2.1867,41.38667 6.5733,20.69333 22.7467,38.12 35.1733,38.65333 -0.8933,-2.89333 -1.64,-5.78666 -2.3066,-8.70666"
         style="fill:#4d5051;fill-opacity:1;fill-rule:nonzero;stroke:none;stroke-width:0.133333" />
      <path
         id="path5"
         d="m 1216.4533,1482.92 c -0.3267,0.027 -0.6613,0.027 -0.9973,-0.013 -2.5814,-0.28 -3.8347,-10.2133 -1.2867,-10.7067 4.584,-0.9066 6.8347,-23.08 13.2213,-47.8666 3.9587,-15.36 6.7774,-31.2 9.3187,-41.16 0.58,-2.2934 1.8013,-2.3867 5.1067,-1.3334 2.448,0.7734 4.8733,0.96 4.072,3.1867 -2.956,8.2533 -7.6334,25.88 -11.6014,41.28 -5.7613,22.36 -12.8453,49.72 -9.62,54.9867 1.0867,1.7866 -6.048,1.44 -8.2133,1.6266"
         style="fill:#4d5051;fill-opacity:1;fill-rule:nonzero;stroke:none;stroke-width:0.133333" />
      <path
         id="path6"
         d="m 1269.856,1391.4667 c -2.5187,-0.5733 -5.3227,-0.44 -5.2574,1.8933 0.088,3.2 -4.0373,18.9867 -9.292,38.36 -4.992,18.4 -9.32,43.36 -13.3533,47.4667 -0.648,0.6533 -0.716,1.8667 -0.416,3.1333 1.7267,-0.72 3.536,-1.1333 5.4787,-1.0666 0.4973,0.027 1.7586,0.2 2.2786,0.2933 0.3907,0.027 1.82,0.1867 2.3574,0.3333 l 0.044,0.013 c 0.8973,-1.4667 1.316,-2.7867 0.564,-3.1334 -4.9014,-2.24 5.7173,-29.3733 10.8226,-48.1333 5.1907,-19.08 9.0854,-33.1467 10.6347,-35.1733 1.4747,-1.9334 -1.3413,-3.4134 -3.8613,-3.9867"
         style="fill:#4d5051;fill-opacity:1;fill-rule:nonzero;stroke:none;stroke-width:0.133333" />
      <path
         id="path7"
         d="m 1273.2573,1474.0934 c 2.2987,-4.0934 6.3667,-7.08 12.0747,-7.7067 1.0466,-1.8667 1.4733,-3.4133 -0.44,-3.6 -5.4147,-0.4933 15.8293,-66.9467 16.6186,-68.84 0.9534,-2.2933 -0.288,-2.7733 -4.1333,-3.24 -2.5747,-0.3067 -4.6507,-0.5733 -5.1267,1.7333 -0.1133,0.5467 -13.1253,68.7734 -21.2653,78.7734 -1.0413,1.2666 0.4427,2.1866 2.272,2.88"
         style="fill:#4d5051;fill-opacity:1;fill-rule:nonzero;stroke:none;stroke-width:0.133333" />
      <path
         id="path8"
         d="m 2137.4666,1482.92 c 0.32,0.027 0.6533,0.027 0.9867,-0.013 2.5866,-0.28 3.84,-10.2133 1.2933,-10.7067 -4.5867,-0.9066 -6.84,-23.08 -13.2267,-47.8666 -3.96,-15.36 -6.7733,-31.2 -9.32,-41.16 -0.5733,-2.2934 -1.8,-2.3867 -5.1066,-1.3334 -2.44,0.7734 -4.8667,0.96 -4.0667,3.1867 2.96,8.2533 7.6267,25.88 11.6,41.28 5.76,22.36 12.8533,49.72 9.6267,54.9867 -1.0934,1.7866 6.04,1.44 8.2133,1.6266"
         style="fill:#4d5051;fill-opacity:1;fill-rule:nonzero;stroke:none;stroke-width:0.133333" />
      <path
         id="path9"
         d="m 2084.0533,1391.4667 c 2.52,-0.5733 5.3333,-0.44 5.2666,1.8933 -0.093,3.2 4.04,18.9867 9.2934,38.36 4.9866,18.4 9.32,43.36 13.3466,47.4667 0.6534,0.6533 0.72,1.8667 0.4134,3.1333 -1.72,-0.72 -3.5334,-1.1333 -5.48,-1.0666 -0.4934,0.027 -1.7467,0.2 -2.2667,0.2933 -0.4,0.027 -1.8267,0.1867 -2.36,0.3333 l -0.053,0.013 c -0.8934,-1.4667 -1.3067,-2.7867 -0.56,-3.1334 4.9066,-2.24 -5.72,-29.3733 -10.8267,-48.1333 -5.1867,-19.08 -9.08,-33.1467 -10.6267,-35.1733 -1.48,-1.9334 1.3334,-3.4134 3.8534,-3.9867"
         style="fill:#4d5051;fill-opacity:1;fill-rule:nonzero;stroke:none;stroke-width:0.133333" />
      <path
         id="path10"
         d="m 2080.6533,1474.0934 c -2.2934,-4.0934 -6.36,-7.08 -12.0667,-7.7067 -1.0533,-1.8667 -1.48,-3.4133 0.44,-3.6 5.4133,-0.4933 -15.8267,-66.9467 -16.6267,-68.84 -0.9466,-2.2933 0.2934,-2.7733 4.1334,-3.24 2.5733,-0.3067 4.6533,-0.5733 5.1333,1.7333 0.1067,0.5467 13.12,68.7734 21.2667,78.7734 1.04,1.2666 -0.4534,2.1866 -2.28,2.88"
         style="fill:#4d5051;fill-opacity:1;fill-rule:nonzero;stroke:none;stroke-width:0.133333" />
      <path
         id="path11"
         d="m 1792.4266,1865.08 c -14.1466,-8.9866 -35.2533,-9.2533 -49.4,-0.1333 -2.0266,1.92 -5.2266,-0.9733 -3.52,-3.16 10.2134,-12.48 28.92,-13.56 43.2534,-8.7733 3.2933,1.08 16.5733,7.7866 12.6133,11.9733 -0.8533,0.7333 -2.08,0.7333 -2.9467,0.093"
         style="fill:#4d5051;fill-opacity:1;fill-rule:nonzero;stroke:none;stroke-width:0.133333" />
      <path
         id="path12"
         d="m 1558.2533,1861.64 c 13.5867,-14.9066 42.9067,-15.6 56.1467,0.1467 0.7733,1.0533 0.5466,2.5333 -0.5067,3.3067 -0.9333,0.6933 -2.1733,0.5733 -3.0133,-0.1467 -6.88,-5.0133 -16.0934,-6.4533 -24.56,-6.56 -8.76,0.027 -17.64,1.7733 -24.84,6.6933 -2.16,1.7067 -5.0534,-1.4133 -3.2267,-3.44"
         style="fill:#4d5051;fill-opacity:1;fill-rule:nonzero;stroke:none;stroke-width:0.133333" />
      <path
         id="path13"
         d="m 2171.5466,1386.44 c -0.4533,0 -0.92,-0.013 -1.4267,-0.053 -14.68,-0.9067 -24.04,-18.7467 -26.64,-23.2667 -1.8533,-3.2 -10.96,-19.1066 -14.84,-20.32 -1.9466,0 8.4934,37.32 9.7067,41.9467 5.9067,22.5733 11.88,44.72 12.4267,65.3467 0.2533,9.3066 -3.5467,20 -13.1467,23.4266 -3.8533,6.72 -8.8133,8.8667 -13.5733,8.8667 -8.4134,0 -16.2,-6.7067 -16.2,-6.7067 -2.2134,2.0667 -4.8667,2.9334 -7.68,2.9334 -9.6,0 -20.9467,-10.0667 -22.08,-16.08 -0.7067,0.72 -2,1.0933 -3.6934,1.0933 -5.72,0 -15.8666,-4.3733 -22.32,-14.8 -10.1866,-16.4933 -14.08,-35.12 -19.36,-51.52 -8.9733,-27.9067 -24.12,-69.2933 -22.0533,-98.8147 0.8933,-12.6906 -2.68,-30.0586 -3.0933,-31.7293 -22.1467,-92.1493 -57.1333,-152.1227 -73.0667,-242.336 -15.36,-86.99999 -28.5066,-95.65333 -47.84,-186.18666 -8.7066,-40.70666 -11.5866,-67.17333 -12.8533,-82.42666 1.5067,-6.76 2.7733,-13.58667 3.1867,-20.57333 0.053,-0.97334 -0.4934,-1.93334 -1.44,-2.34667 -1.24,-0.54667 -2.7067,0.0667 -3.2,1.33333 -4.3734,10.42667 -7.2267,21.2 -9.6934,32.10667 -2.1066,6.64 -3.92,13.2 -5.2,20.09333 -2.8266,15.09333 -11.5066,62.21333 -11.5066,172.52 0,110.29329 30.6666,210.41329 42.6133,309.70269 11.9467,99.284 12.1467,148.8973 -4,285.3773 -16.1333,136.48 -46.12,227.08 -51.16,295.1867 -0.9467,12.7333 -0.8267,24.68 0.5067,33.2 3.1866,20.5066 9.1466,79.9866 9.6,100.7066 1.8133,81.7867 -12.12,165.2133 -26.52,245.52 -9.9867,49.68 -22.7867,98.2533 -22.7867,142.8 0,11.4533 1.2667,35 6.36,42.6267 9.64,14.4666 36.68,26.6 58.7067,51.1334 4.7866,5.3334 3.08,20.2396 -12.6534,25.7463 -70.7466,15.2939 -89.84,23.3333 -105.2666,23.3333 -1.7067,0 -3.3734,-0.1061 -5.0534,-0.2932 -18.68,-2.2134 -36.52,-4.5068 -34.1866,-50.5468 0.5333,-10.5198 3.1466,-20.693 5.2933,-30.9064 5.3467,-25.4666 6.68,-66.9866 7.2533,-85.7733 2.0267,-34.7867 1.3734,-105.1333 -0.64,-142.2533 -2.0133,-37.12 -12.52,-169.4667 -11.1733,-210.1467 1.5333,-46.4933 5.3867,-77.12 8.8667,-97.7333 3.7866,-22.4133 4.5466,-45.1733 2.64,-67.8267 -2.6934,-32.1466 -21.68,-281.24 -22.28,-476.8266 20.0266,17.72 47.6,23.9866 73.5066,25.48 34.56,2.4666 73.8667,-10.52 91.52,-42.2 1.3334,-2.1427 -1.9733,-4.34 -3.44,-2.3347 -10.3866,13.1347 -23.7733,23.3213 -39.1066,29.1613 -20.6,7.6267 -43.64,9.0667 -65.2934,6 -11.0666,-1.56 -22.0133,-4.4 -32.2933,-8.8533 -10.0667,-4.3733 -20.2667,-10.1733 -26.8533,-19.1467 -1.28,-1.7466 -2.4534,-3.56 -3.5067,-5.4533 -1.6933,-3.04 -3.08,-6.2973 -3.64,-9.7373 -0.28,-1.8254 -0.3333,-3.6814 -0.3867,-5.528 -0.6933,-26.48 -1.24,-52.9654 -1.9466,-79.4414 -0.2134,-8.2533 -0.44,-16.4933 -0.6934,-24.7333 -0.08,-3.1067 -4.7466,-3.04 -4.8266,0 -0.6534,21.4267 -1.1734,42.8547 -1.6934,64.2867 -0.2,8.5706 0.32,42.1253 -2.1333,49.28 -2.3733,6.9 -6.7467,13.5266 -12.32,18.2333 -19.1067,16 -45.08,21.08 -69.5467,22.3067 -33.2266,1.8933 -67.0666,-9.2534 -87.7333,-36.3747 -1.5467,-1.996 -4.68,0.1787 -3.44,2.3347 17.64,31.6666 56.9733,44.6666 91.52,42.2 25.9067,-1.4934 53.48,-7.76 73.5067,-25.48 -0.6,197.9466 -19.5867,444.68 -22.28,476.8266 -1.9067,22.6534 -1.1467,45.4134 2.64,67.8267 3.48,20.6133 7.3333,51.24 8.8666,97.7333 1.3467,40.68 -7.0933,167.8533 -7.7333,210.1467 -0.72,47.52 -2.6533,107.4666 -0.64,142.2533 0.5733,18.7867 1.92,60.3067 7.2667,85.7733 2.1466,10.2134 4.76,20.3866 5.2933,30.9064 2.3333,46.04 -15.5067,48.3334 -34.1867,50.5468 -1.6933,0.1871 -3.3466,0.2932 -5.0666,0.2932 -15.4267,0 -34.52,-8.0394 -105.2667,-23.3333 -15.7333,-5.5067 -17.44,-20.4129 -12.64,-25.7463 22.0133,-24.5334 49.0533,-36.6668 58.6933,-51.1334 5.0934,-7.6267 6.3734,-31.1734 6.3734,-42.6267 0,-44.5467 -13.36,-96.0533 -23.3334,-145.7333 -16.08,-79.9867 -31.24,-160.8 -29.4266,-242.5867 0.4533,-20.72 6.4133,-80.2 9.6,-100.7066 1.3333,-8.52 1.4533,-20.4667 0.5066,-33.2 -5.04,-68.1067 -40.28,-178.4 -51.16,-295.1867 -10.8933,-116.7867 -12.88,-191.2133 -4,-285.3773 8.8934,-94.1694 42.6134,-208.7427 42.6134,-309.70269 0,-100.97333 -6.7067,-143.96 -13.08,-175.88 -2.4,-12.06666 -5.5067,-21.93333 -8.2134,-29.12 -1.7466,-6.70666 -3.7466,-13.34666 -6.5866,-19.81333 -0.4,-0.89333 -1.32,-1.49333 -2.3467,-1.42667 -1.32,0.0667 -2.3333,1.21334 -2.2533,2.53334 0.6,7.84 1.96,15.56 3.6666,23.2 -1.3733,15.6 -4.4,41.37333 -12.6133,79.79999 -19.3467,90.53333 -31.4,100.30667 -47.12,186.18666 -17.68,96.5733 -50.92,150.1867 -73.0667,242.336 -0.4133,1.6707 -4.2,18.436 -3.4666,28.756 2.0933,29.8293 -12.3987,72.9213 -21.6787,101.788 -5.276,16.4 -9.172,35.0267 -19.364,51.52 -6.4467,10.4267 -16.6027,14.8 -22.32,14.8 -1.684,0 -2.984,-0.3733 -3.6893,-1.0933 -1.1294,6.0133 -12.4827,16.08 -22.0854,16.08 -2.808,0 -5.4666,-0.8667 -7.676,-2.9334 0,0 -7.7866,6.7067 -16.1986,6.7067 -4.7587,0 -9.716,-2.1467 -13.5774,-8.8667 -9.5946,-3.4266 -13.3946,-14.12 -13.148,-23.4266 0.5454,-20.6267 6.5227,-42.7734 12.432,-65.3467 1.216,-4.64 11.6467,-41.9467 9.6427,-41.9333 -3.824,1.2 -12.928,17.1066 -14.772,20.3066 -2.6093,4.52 -11.9693,22.36 -26.6467,23.2667 -0.5,0.04 -0.9746,0.053 -1.4253,0.053 -7.1187,0 -8.1667,-3.8533 -4.184,-10.7466 10.6387,-16.9734 21.6627,-47.2667 31.2467,-61.856 13.9026,-21.16 27.9066,-30.4934 40.6826,-37.8934 6.2827,-3.6386 11.296,-8.652 14.66,-14.4786 1.8147,-3.144 2.948,-6.684 3.7694,-10.22 13.192,-56.752 14.824,-83.152 25.9773,-159.9654 9.528,-65.6266 30.4213,-108.98663 45.6347,-186.50662 15.3333,-78.18667 23.3333,-91.28 28.8533,-141.68 19.1067,-174.78666 75.6133,-189.50666 99.16,-203.64 24.28,-14.56 77.92,-30.57333 116.92,-53.38666 25.0267,-14.62667 26.5467,-28.96 26.5467,-48.22667 0,-3.21333 0,-10.56 0,-18.2 0,-6.70666 -2.7067,-13.08 -7.36,-17.90666 -9.3467,-9.69334 -16.7334,-19.28 -21.3867,-26.16 C 1572,377.34672 1551,329.41339 1551,235.77339 c 0,-105.28 64.5066,-140.666661 126.68,-142.279995 62.1733,1.613334 126.68,39.653335 126.68,142.279995 0,97.61333 -21,141.57333 -33.3334,159.8 -4.8,7.08 -12.4533,17.04 -22.1866,27 -4.72,4.85333 -7.4667,11.28 -7.4667,18.05333 0,7.26667 0,14.18667 0,17.21333 0,19.26667 -0.2133,35.29334 21.8267,48.22667 38.9733,22.88 98.1733,39.66666 121.8266,53.38666 20.6134,11.97334 80.04,28.85334 99.16,203.64 5.5067,50.4 12.4934,58.4 28.8533,141.68 16.0267,81.55999 35.64,121.06662 46.36,186.50662 11.9467,73 12.7867,103.2267 25.9734,159.9974 0.8266,3.5346 1.96,7.068 3.7733,10.2106 3.3733,5.816 8.3733,10.8227 14.6533,14.456 12.7734,7.4 26.7867,16.7334 40.68,37.8934 9.5867,14.5893 20.6134,44.8826 31.2534,61.856 3.9733,6.8933 2.9333,10.7466 -4.1867,10.7466 z m 11.1467,-14.76 -0.08,-0.1333 -0.08,-0.12 c -5.0267,-8.0133 -10.3334,-19.5867 -15.4667,-30.7867 -5.52,-12.0266 -10.7333,-23.3853 -15.8667,-31.2133 -14.9866,-22.812 -30.2533,-32.832 -43.3733,-40.4347 -4.9733,-2.88 -9.0267,-6.8653 -11.72,-11.5266 -1.1867,-2.056 -2.1067,-4.6014 -2.9067,-8.008 -8.1466,-35.0307 -11.5333,-59.8574 -15.8133,-91.2974 -2.6,-19.0133 -5.5467,-40.5866 -10.0667,-68.1733 -5.5333,-33.8133 -13.4666,-60.9867 -21.8666,-89.7467 -8.2267,-28.19996 -16.7334,-57.35996 -24.5334,-97.01329 -7.0666,-35.98667 -12.3466,-57.81333 -16.6,-75.37333 -5.4533,-22.53334 -9.0666,-37.41334 -12.1466,-65.64 -18.08,-165.24 -71.96,-193.36 -97.8667,-206.88 -1.9466,-1.01333 -3.72,-1.93333 -5.2533,-2.82666 -10.8,-6.26667 -27.7733,-12.8 -47.4267,-20.37334 -24.7733,-9.54666 -52.8666,-20.37333 -74.36,-32.98666 C 1749.4,488.65339 1749.4,477.26672 1749.4,458.40005 v -0.56 l 0.013,-8.4 v -8.81333 c 0,-4.58667 1.84,-9 5.1867,-12.44 11.52,-11.81333 19.4,-22.68 23.08,-28.10667 15.84,-23.39999 34.7066,-70.87999 34.7066,-164.30666 0,-108.25333 -69.48,-148.626661 -134.4933,-150.306661 l -0.2133,-0.01333 -0.2134,0.01333 c -84.2133,2.173333 -134.4933,58.373331 -134.4933,150.306661 0,102.01333 24.2667,148.88 34.7067,164.30666 3.5333,5.2 11.12,15.66667 22.2533,27.22667 3.2933,3.41333 5.1067,7.8 5.1067,12.33333 v 18.2 c 0,17.94667 -1.04,28.70667 -22.56,41.29334 -20.9067,12.22666 -46.5334,22.62666 -69.1467,31.79999 -19.52,7.90667 -36.36,14.74667 -47.8533,21.64 -1.88,1.12 -4.12,2.33334 -6.4934,3.6 -27.4666,14.74667 -78.6133,42.21334 -96.52,206.04 -3.1333,28.65333 -7,44.64 -12.84,68.84 -4.1866,17.38666 -9.4133,39.05333 -15.92,72.17333 -7.024,35.82666 -15.196,64 -23.0986,91.25333 -8.9654,30.89336 -17.432,60.09336 -22.5934,95.63996 -2.948,20.3067 -5.2253,37.0534 -7.236,51.8267 -5.6053,41.2 -8.9893,66.0667 -18.616,107.4787 -0.7946,3.4226 -1.7173,5.972 -2.9013,8.024 -2.696,4.668 -6.7507,8.66 -11.7293,11.544 -13.1254,7.6013 -28.3827,17.6213 -43.3694,40.4333 -5.1426,7.828 -10.3533,19.1867 -15.8706,31.2133 -5.136,11.2 -10.4454,22.7734 -15.4694,30.7867 l -0.077,0.12 -0.073,0.1333 c -1.4054,2.4267 -5.684,9.84 -1.8187,16.5334 1.648,2.8533 5.2333,6.2533 12.96,6.2533 0.6093,0 1.2493,-0.013 1.9253,-0.053 10.4387,-0.6534 18.456,-7.1734 24.0747,-13.8134 -0.2587,0.9467 -0.4547,1.68 -0.5693,2.12 l -0.6,2.28 c -5.6734,21.64 -11.5414,44.0267 -12.092,64.88 -0.2774,10.48 3.752,24.1467 15.7253,30.04 5.944,8.6134 13.5187,10.5067 19.0307,10.5067 6.5826,0 12.5506,-2.7467 16.5266,-5.16 2.272,0.9067 4.7427,1.3733 7.348,1.3733 9.9707,0 20.8534,-7.2133 26.4254,-14.9866 8.4906,-0.28 20.8,-6.1334 28.504,-18.6 8.4506,-13.68 12.8706,-28.7467 16.772,-42.04 1.124,-3.8267 2.2293,-7.6 3.4053,-11.2534 l 1.3707,-4.2533 c 9.6066,-29.8 22.78,-70.6067 20.6733,-100.5507 -0.6,-8.4613 2.6,-23.6266 3.2533,-26.2613 9.7734,-40.7213 21.9067,-74.268 33.64,-106.7213 14.56,-40.28 29.6134,-81.9334 39.5334,-136.1067 8.2533,-45.09333 15.5733,-69.30666 23.3333,-94.93333 7.1733,-23.67999 14.5867,-48.15999 23.7333,-91.01333 5.3734,-25.12 8.5334,-44.74666 10.48,-59.82666 0.36,0.6 0.8534,1.09333 1.4534,1.44 0.2266,1.04 0.4666,2.01333 0.68,3.09333 6.2533,31.37333 12.9333,73.30667 12.9333,174.32 0,59.54669 -11.9333,124.18669 -23.4667,186.69329 -7.9733,43.1734 -15.4933,83.96 -19.1066,122.2547 -8.5734,90.6787 -7.56,163.0787 3.9866,286.8787 6.0134,64.5466 19.32,126.64 31.0534,181.4133 9.5866,44.7733 17.8666,83.4267 20.0933,113.6133 0.9333,12.52 0.7733,23.6667 -0.4267,31.3867 -3.3466,21.5067 -9.24,80.88 -9.6933,101.76 -1.8,80.9466 12.3333,158.56 29.5733,244.3466 2.0134,10.0134 4.1867,20.24 6.2934,30.12 8.2933,38.9734 16.88,79.2534 16.88,114.0267 0,16.9067 -2.2534,34.0267 -5.0134,38.1733 -3.8933,5.84 -12.2,11.9734 -21.8266,19.0667 -11.3734,8.3867 -24.28,17.9065 -36.1734,31.1467 -4.04,4.5068 -5.4266,11.6666 -3.6266,18.6802 2.36,9.1864 9.5066,16.4932 19.6,20.0266 l 0.4666,0.1598 0.4934,0.1068 c 31.7466,6.8667 52.8666,12.213 68.2933,16.1198 19.44,4.9204 29.2,7.387 38.6667,7.387 2.0266,0 3.9866,-0.1068 6,-0.3469 23.1866,-2.7333 43.7866,-9.2932 41.2666,-58.9333 -0.4666,-9.2667 -2.4,-18.1198 -4.2666,-26.68 -0.4,-1.8267 -0.8,-3.6534 -1.1867,-5.4667 -5.28,-25.1333 -6.5467,-66.64 -7.0933,-84.36 -1.56,-27.0667 -0.7467,-68.8 0.053,-109.16 0.2133,-11.24 0.44,-22.2933 0.6,-32.7333 0.24,-16.6134 1.7467,-47.0267 3.32,-79.2267 2.4533,-49.88 5.2267,-106.4 4.4133,-131.3067 -1.2666,-38.16 -4.2133,-70.48 -8.9866,-98.7999 -3.5867,-21.24 -4.44,-43.3867 -2.56,-65.8267 0.2266,-2.64 22.16,-273.04 22.3466,-484.32 l 6.2134,-8.2533 6.4533,8.32 c 0.2,211.24 22.12,481.6133 22.3467,484.2533 1.88,22.44 1.0266,44.5867 -2.56,65.8267 -4.7734,28.3333 -7.72,60.6399 -8.9867,98.7999 -1,30.4134 4.3333,108.4534 8.2267,165.44 1.3066,19.16 2.44,35.72 2.9733,45.4 1.9733,36.44 2.68,106.1334 0.64,141.36 -0.56,17.9467 -1.8267,59.4534 -7.1067,84.5867 -0.3866,1.8267 -0.7866,3.64 -1.1733,5.4667 -1.88,8.5602 -3.8133,17.4133 -4.28,26.68 -2.52,49.6401 18.08,56.2 41.2667,58.9333 2.0133,0.2401 3.9733,0.3469 6,0.3469 9.48,0 19.24,-2.4666 38.6666,-7.387 15.4267,-3.9068 36.5467,-9.2531 68.3067,-16.1198 l 0.48,-0.1068 0.4667,-0.1598 c 10.1066,-3.5334 17.2533,-10.8402 19.6133,-20.0266 1.8,-7.0136 0.4,-14.1734 -3.64,-18.6802 -11.8933,-13.2402 -24.7867,-22.76 -36.1733,-31.1467 -9.6134,-7.0933 -17.9334,-13.2267 -21.8267,-19.0667 -2.76,-4.1466 -5.0133,-21.2666 -5.0133,-38.1733 0,-34.6267 7.92,-71.6933 16.2933,-110.9467 2.12,-9.88 4.2933,-20.1066 6.3333,-30.2666 15.1067,-84.16 28.48,-166.2667 26.68,-247.2934 -0.4533,-20.8666 -6.3466,-80.2399 -9.6933,-101.7466 -1.2,-7.72 -1.36,-18.8667 -0.4267,-31.3867 2.28,-30.92 10.0267,-67.5866 18.9734,-110.04 10.44,-49.4533 23.4266,-111 32.16,-184.7866 16.6,-140.4 15.7066,-189.92 3.9866,-287.2827 -4.3733,-36.304 -11.0533,-71.8107 -18.1333,-109.4107 -12,-63.8266 -24.4267,-129.8133 -24.4267,-199.33329 0,-73.16 3.8267,-130.70667 11.3734,-171.04 0.44,-2.37333 1.0533,-4.69333 1.6133,-7.01333 0.4933,-0.48 0.9067,-1.02667 1.12,-1.73334 l 0.08,-0.30666 c 1.9333,15.24 5.1067,35.25333 10.6267,61.06666 9.0933,42.53334 16.6933,66.72 24.04,90.12 8.04,25.61333 15.64,49.81333 23.76,95.77336 8.8933,50.3733 23.36,90.6533 38.68,133.2933 12.12,33.7067 24.64,68.56 34.48,109.5333 0.6133,2.4934 3.6666,18.2574 2.8933,29.2894 -1.9467,27.6746 9.72,63.164 19.1066,91.684 1.16,3.5333 2.28,6.9333 3.3067,10.1466 1.1733,3.6534 2.28,7.4267 3.4133,11.2534 3.8934,13.2933 8.32,28.36 16.7734,42.04 7.6933,12.4666 20.0133,18.32 28.4933,18.6 5.5733,7.7733 16.4533,14.9866 26.4267,14.9866 2.6133,0 5.08,-0.4666 7.3466,-1.3733 3.9867,2.4133 9.9467,5.16 16.5334,5.16 5.5066,0 13.08,-1.8933 19.0266,-10.5067 11.9734,-5.8933 16,-19.56 15.7334,-30.04 -0.56,-20.8533 -6.4267,-43.24 -12.0934,-64.88 l -0.6,-2.28 c -0.12,-0.44 -0.32,-1.1733 -0.5733,-2.12 5.6133,6.64 13.64,13.16 24.08,13.8134 0.6667,0.04 1.3067,0.053 1.92,0.053 7.72,0 11.3067,-3.4 12.96,-6.2533 3.8667,-6.6934 -0.4133,-14.1067 -1.8133,-16.5334"
         style="fill:#4d5051;fill-opacity:1;fill-rule:nonzero;stroke:none;stroke-width:0.133333" />
      <path
         id="path14"
         d="m 1616.8666,789.97338 c 11.72,-4.72 22.6534,-15.46667 28.64,-26.41333 7.9734,-21.54667 5.8667,-45.62667 6.2267,-68.42667 -0.027,-3.6 5.48,-3.85333 5.72,-0.21333 1.0667,23.72 3.3067,48.84 -5.68,71.54666 -7.68,13.38667 -18.6133,23.52 -33.44,28.84 -3.5867,1.09333 -5.12,-4.37333 -1.4667,-5.33333"
         style="fill:#4d5051;fill-opacity:1;fill-rule:nonzero;stroke:none;stroke-width:0.133333" />
      <path
         id="path15"
         d="m 1737.0266,795.30671 c -14.8266,-5.32 -25.76,-15.45333 -33.44,-28.84 -8.9866,-22.69333 -6.7466,-47.81333 -5.6933,-71.53333 0.2533,-3.6 5.7333,-3.45333 5.7333,0.2 0.36,22.8 -1.7466,46.88 6.2267,68.42667 6.0533,11.05333 17.08,21.89333 28.9733,26.54666 3.3067,1.2 1.5734,6.30667 -1.8,5.2"
         style="fill:#4d5051;fill-opacity:1;fill-rule:nonzero;stroke:none;stroke-width:0.133333" />
      <path
         id="path16"
         d="m 1680.8,930.09337 c 0.72,42.32 0.5733,86.69333 -0.2534,128.97333 -0.093,3.76 -5.6266,3.8267 -5.7333,0 -0.68,-31.04 -0.7733,-65.50666 -0.6133,-96.73333 0.013,-10.74666 0.12,-21.49333 0.36,-32.24 0.093,-4.12 6.1333,-4.17333 6.24,0"
         style="fill:#4d5051;fill-opacity:1;fill-rule:nonzero;stroke:none;stroke-width:0.133333" />
    </g>
  </g>
</svg>
