<?xml version="1.0" encoding="UTF-8" standalone="no"?>
<!-- Created with Inkscape (http://www.inkscape.org/) -->

<svg
   width="309.03mm"
   height="685.81299mm"
   viewBox="0 0 309.02999 685.81299"
   version="1.1"
   id="svg1"
   sodipodi:docname="body-front.svg"
   inkscape:version="1.3.2 (091e20ef0f, 2023-11-25, custom)"
   xmlns:inkscape="http://www.inkscape.org/namespaces/inkscape"
   xmlns:sodipodi="http://sodipodi.sourceforge.net/DTD/sodipodi-0.dtd"
   xmlns="http://www.w3.org/2000/svg"
   xmlns:svg="http://www.w3.org/2000/svg">
  <sodipodi:namedview
     id="namedview1"
     pagecolor="#ffffff"
     bordercolor="#666666"
     borderopacity="1.0"
     inkscape:showpageshadow="2"
     inkscape:pageopacity="0.0"
     inkscape:pagecheckerboard="0"
     inkscape:deskcolor="#d1d1d1"
     inkscape:document-units="mm"
     inkscape:zoom="0.32011294"
     inkscape:cx="743.48759"
     inkscape:cy="1290.1696"
     inkscape:window-width="1262"
     inkscape:window-height="1334"
     inkscape:window-x="26"
     inkscape:window-y="23"
     inkscape:window-maximized="0"
     inkscape:current-layer="svg1" />
  <defs
     id="defs1" />
  <g
     id="layer1"
     transform="translate(49.633159,194.3606)">
    <g
       id="g73"
       transform="matrix(0.26458333,0,0,0.26458333,-56.951361,-197.96479)">
      <path
         id="path17"
         d="m 420.47466,778.69338 c -4.33867,-17.57333 -6.44667,-35.81333 -12.85467,-52.61333 -0.48,-1.24 0.132,-2.62667 1.36667,-3.10667 1.01066,-0.38667 2.12666,-0.0533 2.76,0.77333 5.924,7.6 8.876,17.02667 11.116,26.18667 2.308,9.05333 3.97066,18.10667 5.48666,27.16 0.36534,2.2 -1.112,4.26666 -3.30133,4.62666 -2.092,0.36 -4.08133,-1 -4.57333,-3.02666"
         style="fill:#4d5051;fill-opacity:1;fill-rule:nonzero;stroke:none;stroke-width:0.133333" />
      <path
         id="path18"
         d="m 794.95598,777.09338 c 3.58667,-18.04 5.428,-37.97333 16.60133,-53.34667 0.81467,-1.05333 2.32134,-1.24 3.36667,-0.42666 0.85467,0.66666 1.136,1.8 0.76267,2.76 -3.21734,8.26666 -5.184,16.82666 -7.15867,25.72 -1.8,8.88 -3.54,17.92 -5.69733,26.89333 -0.51334,2.16 -2.68,3.49333 -4.83867,2.97333 -2.06267,-0.48 -3.36933,-2.50667 -3.036,-4.57333"
         style="fill:#4d5051;fill-opacity:1;fill-rule:nonzero;stroke:none;stroke-width:0.133333" />
      <path
         id="path19"
         d="m 151.148,1482.6534 c -0.32534,0.027 -0.66134,0.027 -0.99734,0 -2.58133,-0.28 -3.83333,-10.2134 -1.28533,-10.72 4.584,-0.8934 6.83467,-23.0667 13.22,-47.8667 3.95867,-15.36 6.77733,-31.2 9.31867,-41.16 0.58,-2.28 1.80133,-2.3867 5.10666,-1.3333 2.448,0.7866 4.87334,0.96 4.072,3.2 -2.956,8.24 -7.63333,25.88 -11.60133,41.28 -5.76,22.36 -12.844,49.7066 -9.62,54.9866 1.088,1.7734 -6.048,1.44 -8.21333,1.6134"
         style="fill:#4d5051;fill-opacity:1;fill-rule:nonzero;stroke:none;stroke-width:0.133333" />
      <path
         id="path20"
         d="m 204.55199,1391.2 c -2.51866,-0.56 -5.32266,-0.44 -5.25866,1.9067 0.088,3.1867 -4.036,18.9733 -9.292,38.3467 -4.992,18.4 -9.32,43.36 -13.35333,47.4666 -0.64667,0.6667 -0.71467,1.8667 -0.416,3.1467 1.728,-0.72 3.536,-1.1467 5.48,-1.0667 0.49733,0.013 1.75733,0.2 2.27866,0.28 0.38934,0.04 1.82,0.1867 2.35734,0.3467 l 0.044,0.013 c 0.89733,-1.48 1.31466,-2.7866 0.56266,-3.1333 -4.9,-2.2533 5.71867,-29.3733 10.824,-48.1467 5.18933,-19.08 9.084,-33.1333 10.63333,-35.1733 1.476,-1.9333 -1.34133,-3.4133 -3.86,-3.9867"
         style="fill:#4d5051;fill-opacity:1;fill-rule:nonzero;stroke:none;stroke-width:0.133333" />
      <path
         id="path21"
         d="m 207.95333,1473.8267 c 2.29866,-4.08 6.36533,-7.08 12.07466,-7.6933 1.04667,-1.8667 1.472,-3.4267 -0.44133,-3.6 -5.41333,-0.5067 15.82933,-66.96 16.61867,-68.84 0.95466,-2.2934 -0.28667,-2.7734 -4.13334,-3.24 -2.57333,-0.3067 -4.64933,-0.5867 -5.12533,1.72 -0.11467,0.5466 -13.12533,68.7733 -21.26533,78.7733 -1.04134,1.28 0.44133,2.2 2.272,2.88"
         style="fill:#4d5051;fill-opacity:1;fill-rule:nonzero;stroke:none;stroke-width:0.133333" />
      <path
         id="path22"
         d="m 221.61066,1310.144 c -14.15333,20.7134 -35.27466,26.376 -48.77733,28.9094 0,0 14.66133,1.7733 29.19333,-5.4934 17.744,-8.8733 19.584,-23.416 19.584,-23.416"
         style="fill:#4d5051;fill-opacity:1;fill-rule:nonzero;stroke:none;stroke-width:0.133333" />
      <path
         id="path23"
         d="m 216.90133,1318.352 c -9.06,9.844 -19.80533,15.3014 -29.70533,18.5547 4.35733,-0.7733 9.29733,-2.16 14.19599,-4.6173 8.19867,-4.0974 12.87067,-9.484 15.50934,-13.9374 z m -39.756,22.3147 c -2.63467,0 -4.28267,-0.1867 -4.48133,-0.2133 -0.69467,-0.08 -1.22267,-0.6534 -1.24534,-1.36 -0.024,-0.6934 0.468,-1.3067 1.15334,-1.44 14.05066,-2.64 34.29866,-8.4467 47.86799,-28.3094 0.372,-0.5453 1.06934,-0.7613 1.67334,-0.5266 0.612,0.2306 0.98533,0.8546 0.90533,1.5053 -0.0813,0.6227 -2.14667,15.4 -20.35733,24.504 -10.00267,5 -19.95733,5.84 -25.516,5.84"
         style="fill:#4d5051;fill-opacity:1;fill-rule:nonzero;stroke:none;stroke-width:0.133333" />
      <path
         id="path24"
         d="m 1072.156,1482.6534 c 0.3266,0.027 0.6626,0.027 0.9973,0 2.5827,-0.28 3.8347,-10.2134 1.2867,-10.72 -4.584,-0.8934 -6.8334,-23.0667 -13.2214,-47.8667 -3.9586,-15.36 -6.776,-31.2 -9.3186,-41.16 -0.5787,-2.28 -1.8,-2.3867 -5.1067,-1.3333 -2.448,0.7866 -4.872,0.96 -4.0707,3.2 2.9547,8.24 7.632,25.88 11.6014,41.28 5.76,22.36 12.844,49.7066 9.62,54.9866 -1.0867,1.7734 6.048,1.44 8.212,1.6134"
         style="fill:#4d5051;fill-opacity:1;fill-rule:nonzero;stroke:none;stroke-width:0.133333" />
      <path
         id="path25"
         d="m 1018.7533,1391.2 c 2.5187,-0.56 5.3227,-0.44 5.2587,1.9067 -0.089,3.1867 4.036,18.9733 9.292,38.3467 4.9906,18.4 9.32,43.36 13.3533,47.4666 0.6467,0.6667 0.716,1.8667 0.4147,3.1467 -1.7267,-0.72 -3.5347,-1.1467 -5.4787,-1.0667 -0.4973,0.013 -1.7573,0.2 -2.2787,0.28 -0.3906,0.04 -1.82,0.1867 -2.3573,0.3467 l -0.044,0.013 c -0.8973,-1.48 -1.316,-2.7866 -0.5627,-3.1333 4.9014,-2.2533 -5.7173,-29.3733 -10.824,-48.1467 -5.1906,-19.08 -9.0853,-33.1333 -10.6346,-35.1733 -1.4747,-1.9333 1.3426,-3.4133 3.8613,-3.9867"
         style="fill:#4d5051;fill-opacity:1;fill-rule:nonzero;stroke:none;stroke-width:0.133333" />
      <path
         id="path26"
         d="m 1015.352,1473.8267 c -2.2987,-4.08 -6.3667,-7.08 -12.0747,-7.6933 -1.0467,-1.8667 -1.472,-3.4267 0.4413,-3.6 5.4134,-0.5067 -15.83062,-66.96 -16.61862,-68.84 -0.95467,-2.2934 0.28666,-2.7734 4.13333,-3.24 2.57333,-0.3067 4.64933,-0.5867 5.12533,1.72 0.11334,0.5466 13.12536,68.7733 21.26536,78.7733 1.0413,1.28 -0.4427,2.2 -2.272,2.88"
         style="fill:#4d5051;fill-opacity:1;fill-rule:nonzero;stroke:none;stroke-width:0.133333" />
      <path
         id="path27"
         d="m 1001.6946,1310.144 c 14.152,20.7134 35.2747,26.376 48.776,28.9094 0,0 -14.66,1.7733 -29.192,-5.4934 -17.7426,-8.8733 -19.584,-23.416 -19.584,-23.416"
         style="fill:#4d5051;fill-opacity:1;fill-rule:nonzero;stroke:none;stroke-width:0.133333" />
      <path
         id="path28"
         d="m 1006.404,1318.352 c 2.6373,4.4534 7.3093,9.84 15.508,13.9374 4.8986,2.4573 9.8386,3.844 14.196,4.6173 -9.8987,-3.2533 -20.6454,-8.7107 -29.704,-18.5547 z m 39.7573,22.3147 c -5.5587,0 -15.512,-0.84 -25.5187,-5.84 -18.2093,-9.104 -20.2746,-23.8813 -20.356,-24.504 -0.081,-0.6507 0.2934,-1.2747 0.904,-1.5053 0.612,-0.24 1.304,-0.019 1.6734,0.5266 13.5706,19.8627 33.8186,25.6694 47.8693,28.3094 0.6867,0.1333 1.1787,0.7466 1.156,1.44 -0.024,0.7066 -0.552,1.28 -1.2467,1.36 -0.1986,0.027 -1.8466,0.2133 -4.4813,0.2133"
         style="fill:#4d5051;fill-opacity:1;fill-rule:nonzero;stroke:none;stroke-width:0.133333" />
      <path
         id="path29"
         d="m 717.38932,2524.0267 c -0.28667,0 -0.57467,-0.027 -0.86534,-0.1068 -1.89733,-0.4802 -3.05066,-2.4 -2.576,-4.3068 1.988,-7.9198 0.17867,-17.2395 -5.38,-27.6932 -0.91866,-1.7198 -0.26266,-3.8667 1.46534,-4.7864 1.71866,-0.9204 3.86933,-0.2667 4.792,1.453 6.408,12.0667 8.42666,23.0803 6,32.7599 -0.404,1.6136 -1.848,2.6803 -3.436,2.6803"
         style="fill:#4d5051;fill-opacity:1;fill-rule:nonzero;stroke:none;stroke-width:0.133333" />
      <path
         id="path30"
         d="m 746.30665,2520.4136 c -0.18,0 -0.36267,-0.014 -0.544,-0.04 -1.936,-0.2933 -3.26134,-2.1068 -2.96267,-4.0401 1.52,-9.8538 -1.888,-18.947 -5.01467,-24.8266 -0.91866,-1.7338 -0.26266,-3.8802 1.46534,-4.787 1.74,-0.9198 3.87333,-0.2667 4.792,1.4666 3.632,6.8266 7.58,17.4538 5.76133,29.2271 -0.26933,1.7464 -1.77867,3 -3.49733,3"
         style="fill:#4d5051;fill-opacity:1;fill-rule:nonzero;stroke:none;stroke-width:0.133333" />
      <path
         id="path31"
         d="m 771.67998,2513.8001 c -0.18,0 -0.36267,-0.014 -0.54533,-0.04 -1.93334,-0.3068 -3.26,-2.1068 -2.96267,-4.0401 1.428,-9.2667 -1.77733,-17.813 -4.71867,-23.3599 -0.916,-1.7197 -0.26,-3.8667 1.47067,-4.7864 1.728,-0.9204 3.876,-0.2667 4.792,1.4667 3.44267,6.4932 7.188,16.5728 5.46267,27.7598 -0.27067,1.7463 -1.78,3 -3.49867,3"
         style="fill:#4d5051;fill-opacity:1;fill-rule:nonzero;stroke:none;stroke-width:0.133333" />
      <path
         id="path32"
         d="m 682.56932,2526.2933 c -1.216,0 -2.416,-0.5464 -3.20667,-1.6 -1.336,-1.7598 -0.988,-4.2797 0.78133,-5.613 0.64667,-0.4938 1.876,-2.3734 2.38134,-6.3072 0.708,-5.5328 -0.47734,-11.5063 -2.884,-14.56 -5.61467,-7.1198 -6.496,-10.8395 -6.632,-11.813 -0.30667,-2.2 1.22266,-4.2265 3.42133,-4.5333 2.20267,-0.3204 4.22267,1.2135 4.53467,3.4129 0.016,0 0.76133,2.6 4.984,7.9606 4.56,5.7728 5.29866,14.6796 4.544,20.5598 -0.69067,5.3599 -2.644,9.5198 -5.504,11.6796 -0.724,0.547 -1.576,0.8136 -2.42,0.8136"
         style="fill:#4d5051;fill-opacity:1;fill-rule:nonzero;stroke:none;stroke-width:0.133333" />
      <path
         id="path33"
         d="m 505.91732,2524.0267 c -1.588,0 -3.03067,-1.0667 -3.43467,-2.6803 -2.428,-9.6796 -0.412,-20.7061 5.996,-32.7599 0.92134,-1.7197 3.06667,-2.3734 4.79334,-1.453 1.728,0.9197 2.384,3.0666 1.46533,4.7864 -5.55733,10.4537 -7.368,19.7734 -5.37867,27.6932 0.47467,1.9068 -0.67866,3.8266 -2.576,4.3068 -0.29066,0.08 -0.57866,0.1068 -0.86533,0.1068"
         style="fill:#4d5051;fill-opacity:1;fill-rule:nonzero;stroke:none;stroke-width:0.133333" />
      <path
         id="path34"
         d="m 476.99732,2520.4136 c -1.71867,0 -3.228,-1.2536 -3.49733,-3 -1.816,-11.7869 2.12933,-22.4005 5.76133,-29.2271 0.91867,-1.7333 3.06667,-2.3864 4.79333,-1.4666 1.728,0.9068 2.38267,3.0532 1.464,4.787 -3.12666,5.8796 -6.53333,14.9728 -5.01333,24.8266 0.29733,1.9333 -1.02933,3.7468 -2.96267,4.0401 -0.18266,0.026 -0.364,0.04 -0.54533,0.04"
         style="fill:#4d5051;fill-opacity:1;fill-rule:nonzero;stroke:none;stroke-width:0.133333" />
      <path
         id="path35"
         d="m 451.62532,2513.8001 c -1.72,0 -3.228,-1.2537 -3.49866,-3 -1.72534,-11.187 2.01866,-21.2666 5.464,-27.7598 0.91866,-1.7334 3.07333,-2.3871 4.79333,-1.4667 1.73067,0.9197 2.38533,3.0667 1.46933,4.7864 -2.94266,5.5469 -6.14933,14.0932 -4.72133,23.3599 0.29867,1.9333 -1.02933,3.7333 -2.96267,4.0401 -0.18266,0.026 -0.364,0.04 -0.544,0.04"
         style="fill:#4d5051;fill-opacity:1;fill-rule:nonzero;stroke:none;stroke-width:0.133333" />
      <path
         id="path36"
         d="m 540.73465,2526.2933 c -0.844,0 -1.696,-0.2666 -2.42,-0.8136 -2.85866,-2.1598 -4.81333,-6.3197 -5.50266,-11.6796 -0.75467,-5.8802 -0.0173,-14.787 4.54266,-20.5598 4.356,-5.5204 5.012,-8.1339 5.01867,-8.147 0.496,-2.0932 2.564,-3.5333 4.67067,-3.1068 2.10666,0.4 3.54933,2.2932 3.25066,4.4136 -0.136,0.9735 -1.01733,4.6932 -6.63066,11.813 -2.408,3.0537 -3.59334,9.0272 -2.88534,14.56 0.50534,3.9338 1.736,5.8134 2.38134,6.3072 1.77066,1.3333 2.11866,3.8532 0.78266,5.613 -0.79066,1.0536 -1.992,1.6 -3.208,1.6"
         style="fill:#4d5051;fill-opacity:1;fill-rule:nonzero;stroke:none;stroke-width:0.133333" />
      <path
         id="path37"
         d="m 491.26799,1857.44 c 14.02,11.8134 37.492,12.2267 51.38533,0.1467 1.828,-2.1067 5.28267,0.48 3.8,2.8133 -12.66533,19.1067 -45.59733,18.3067 -58.736,0.16 -1.64267,-2.24 1.572,-5.04 3.55067,-3.12"
         style="fill:#4d5051;fill-opacity:1;fill-rule:nonzero;stroke:none;stroke-width:0.133333" />
      <path
         id="path38"
         d="m 735.58798,1860.56 c -13.136,18.1467 -46.072,18.9467 -58.73733,-0.16 -0.66933,-1.12 -0.29733,-2.5866 0.82933,-3.2533 0.99067,-0.5867 2.224,-0.36 2.97067,0.44 13.896,12.08 37.36267,11.6667 51.38533,-0.1467 1.992,-1.9333 5.20267,0.92 3.552,3.12"
         style="fill:#4d5051;fill-opacity:1;fill-rule:nonzero;stroke:none;stroke-width:0.133333" />
      <path
         id="path39"
         d="m 611.28932,1094.04 c 5.744,0 10.39866,3.5734 10.39866,8 0,4.4134 -4.65466,8 -10.39866,8 -5.74534,0 -10.4,-3.5866 -10.4,-8 0,-4.4266 4.65466,-8 10.4,-8"
         style="fill:#4d5051;fill-opacity:1;fill-rule:nonzero;stroke:none;stroke-width:0.133333" />
      <path
         id="path40"
         d="m 494.62799,772.96005 c 6.224,0 11.26666,3.88 11.26666,8.67999 0,4.77334 -5.04266,8.65334 -11.26666,8.65334 -6.22267,0 -11.26534,-3.88 -11.26534,-8.65334 0,-4.79999 5.04267,-8.67999 11.26534,-8.67999"
         style="fill:#4d5051;fill-opacity:1;fill-rule:nonzero;stroke:none;stroke-width:0.133333" />
      <path
         id="path41"
         d="m 498.63599,345.26672 c -7.028,-1.62666 -20.344,-13.32 -26.544,-32.82666 -4.58667,-14.41334 -4.25467,-27.45334 0.86533,-34 2.724,-3.48 6.75733,-5.18667 12.29467,-5.18667 0.228,0 0.47066,0.0133 0.704,0.0267 -0.332,-1.16 -0.664,-2.30667 -0.99734,-3.45334 -0.464,-1.58666 -0.72533,-3.09333 -0.832,-4.56 -9.27333,0.34667 -14.60666,4.53334 -17.49866,8.22667 -6.83467,8.74667 -7.65333,24.21333 -2.192,41.38667 6.68533,21.01333 23.26933,38.69333 35.77333,38.69333 0.21067,0 0.412,-0.0267 0.62,-0.04 -0.91867,-2.69333 -1.64267,-5.45333 -2.19333,-8.26667"
         style="fill:#4d5051;fill-opacity:1;fill-rule:nonzero;stroke:none;stroke-width:0.133333" />
      <path
         id="path42"
         d="m 756.67598,273.49339 c -3.04533,-3.90667 -8.80533,-8.28 -19.088,-8.21333 -0.132,2.72 -0.276,5.38666 -0.44133,8 0.30133,-0.0133 0.61333,-0.0267 0.90666,-0.0267 5.53734,0 9.57067,1.70667 12.29334,5.18667 5.12133,6.54666 5.45333,19.58666 0.86533,34 -5.71467,17.96 -17.49733,29.24 -24.78533,32.2 -0.82133,3.10666 -1.66533,6.05333 -2.52533,8.86666 12.39999,-0.72 28.42266,-18.05333 34.96666,-38.62666 5.46267,-17.17334 4.64267,-32.64 -2.192,-41.38667"
         style="fill:#4d5051;fill-opacity:1;fill-rule:nonzero;stroke:none;stroke-width:0.133333" />
      <path
         id="path43"
         d="m 611.62532,97.253395 c -36.82267,0.96 -122.63333,16.373335 -122.63333,138.266665 0,101.45333 24.98266,146.22666 32.64,157.53333 4.34666,6.42666 43.79333,62.70666 90.02133,62.70666 46.22666,0 85.672,-56.28 90.02,-62.70666 14.88933,-21.98667 32.64133,-67.17333 32.64133,-157.53333 0,-125.24 -93.79467,-137.506665 -122.68933,-138.266665 z m 0.028,366.546655 c -50.372,0 -92.08267,-59.45333 -96.672,-66.24 -10.23067,-15.10666 -34.024,-61.13333 -34.024,-162.03999 0,-49.48 13.89867,-87.49333 41.30933,-112.96 28.176,-26.186665 63.69334,-32.599998 88.72933,-33.319998 v -0.02667 l 1.31467,0.02667 c 34.90533,1.04 66.368,13.213338 88.75067,34.333328 27.39733,25.84 41.28799,63.49334 41.28799,111.94667 0,92.4 -18.50399,139.12 -34.02666,162.03999 -4.58933,6.78667 -46.29867,66.24 -96.66933,66.24"
         style="fill:#4d5051;fill-opacity:1;fill-rule:nonzero;stroke:none;stroke-width:0.133333" />
      <path
         id="path44"
         d="m 1116.66,1371.4134 -0.073,-0.12 -0.077,-0.12 c -5.024,-8.0267 -10.3333,-19.6 -15.4693,-30.7867 -5.516,-12.032 -10.7267,-23.392 -15.8694,-31.2187 -14.9866,-22.812 -30.2453,-32.832 -43.3706,-40.4346 -4.9747,-2.8827 -9.0294,-6.8707 -11.724,-11.5347 -1.1867,-2.052 -2.1094,-4.604 -2.9054,-8.0307 -9.6293,-41.4213 -13.012,-66.288 -18.6186,-107.488 -2.0094,-14.7733 -4.2867,-31.52 -7.2334,-51.8133 -5.16262,-35.5467 -13.62929,-64.7467 -22.59329,-95.65333 -7.90267,-27.24 -16.07467,-55.42666 -23.10267,-91.25333 -6.49866,-33.12 -11.724,-54.77333 -15.92266,-72.17333 -5.84,-24.2 -9.69734,-40.17333 -12.82934,-68.82666 -17.91733,-163.82667 -69.05333,-191.29333 -96.52533,-206.04 -2.372,-1.28 -4.612,-2.48 -6.48933,-3.61333 -11.49067,-6.89334 -28.344,-13.72 -47.85867,-21.64 -22.60933,-9.17334 -48.23599,-19.56 -69.14533,-31.78667 -21.516,-12.58666 -22.56266,-23.34666 -22.56266,-41.29333 l 0.003,-35.69333 c -2.54266,3.04 -5.22133,5.82666 -8.03466,8.37333 0,9.72 0,19.73333 -0.001,27.32 -10e-4,19.26667 1.516,33.58667 26.54,48.22667 39.00267,22.81333 92.64133,38.81333 116.92533,53.38666 23.54667,14.13333 80.048,28.85333 99.16267,203.64 5.512,50.39999 13.516,63.47999 28.85466,141.66666 15.208,77.52 36.1,120.87999 45.62934,186.51999 11.15204,76.8133 12.78404,103.2 25.97734,159.9613 0.8227,3.5387 1.9573,7.084 3.7747,10.2307 3.3626,5.82 8.376,10.8293 14.6546,14.4667 12.7747,7.4 26.78,16.7333 40.6814,37.8933 9.5826,14.588 20.608,44.8747 31.2466,61.848 3.9827,6.9067 2.9347,10.7467 -4.1813,10.7467 -0.452,0 -0.9267,-0.013 -1.428,-0.04 -14.6787,-0.92 -24.0373,-18.76 -26.6467,-23.28 -1.844,-3.1867 -10.948,-19.0934 -14.772,-20.3067 l -0.056,-0.013 c -1.948,0 8.484,37.32 9.6987,41.96 5.9107,22.56 11.888,44.72 12.432,65.3466 0.2467,9.3067 -3.5533,20 -13.148,23.4134 -3.8613,6.7333 -8.82,8.88 -13.5773,8.88 -8.412,0 -16.1987,-6.72 -16.1987,-6.72 -2.2093,2.08 -4.868,2.9333 -7.676,2.9333 -9.6027,0 -20.956,-10.0533 -22.0853,-16.0667 -0.7054,0.72 -2.0054,1.0934 -3.688,1.0934 -5.7187,0 -15.87471,-4.3734 -22.32138,-14.8134 -10.192,-16.4933 -14.088,-35.1066 -19.364,-51.52 -9.28,-28.8533 -23.77333,-71.952 -21.67733,-101.7813 0.72533,-10.32 -3.05067,-27.0853 -3.464,-28.7547 -22.14533,-92.1573 -55.39067,-145.7573 -73.07067,-242.344 -15.71866,-85.87996 -27.77466,-95.65329 -47.11999,-186.17329 -13.276,-62.13333 -13.01467,-91.28 -14.11067,-97.62666 h -0.008 c -0.28667,0 -8.96267,16.02666 -14.22933,42.43999 -6.36667,31.93334 -13.084,74.92 -13.084,175.88 0,100.97336 33.72266,215.54666 42.61466,309.71066 8.89067,94.1693 6.9,168.5827 -3.99066,285.3693 -10.89067,116.7867 -46.132,227.08 -51.16534,295.1867 -0.94133,12.7333 -0.82533,24.6933 0.50267,33.2133 3.19333,20.4934 9.148,79.9733 9.60267,100.6933 1.812,81.7867 -12.66667,165.2267 -27.07334,245.5334 -2.35466,13.12 -31.23333,102.0266 -28.49733,146.3066 7.188,20.44 54.44133,74.7464 62.92133,95.0667 13.008,31.1469 -13.21733,35.9735 -13.21733,35.9735 -3.91733,5.2796 -11.07467,8.5734 -18.84667,8.5734 -2.324,0 -4.704,-0.2938 -7.06933,-0.9204 -4.88667,3.4803 -11.51867,5.2538 -18.11066,5.2538 -4.10934,0 -8.204,-0.6939 -11.852,-2.0939 -4.23867,3.3333 -11.23867,5.4939 -18.38934,5.4939 -4.89066,0 -9.852,-1.0136 -14.04933,-3.347 -5.34267,0.9068 -9.32267,2.347 -14.89733,2.347 -2.128,0 -4.48534,-0.2136 -7.24267,-0.7334 -15.152,-2.8933 -18.97733,-10.2266 -19.65333,-20.387 -2.096,-31.4802 1.984,-79.6532 4.06,-108.7199 0.78266,-10.96 -1.048,-24.4133 -0.784,-28.96 2.024,-34.8 6.356,-64.2667 6.356,-103.3067 0,-20.2266 -0.48267,-40.4933 -2.21734,-60.64 -3.62933,-42.1333 -13.45333,-163.52 -12.10666,-204.1866 1.54266,-46.5067 5.39733,-77.12 8.87333,-97.7333 3.78,-22.4267 4.54533,-45.1867 2.64133,-67.84 -2.708,-32.2134 -21.78133,-289.5467 -22.30133,-487.96 6.308,-1.4667 15.664,-4.7734 17.436,-7.78 1.50133,-1.6307 -0.0107,-4.5014 -2.23467,-4.1294 -1.69466,0.2654 -3.35866,0.5974 -5.008,0.956 -8.08,1.7547 -16.30666,2.7467 -24.576,2.7467 -8.264,0 -16.48666,-0.9907 -24.56399,-2.7453 -1.65734,-0.36 -3.328,-0.692 -5.028,-0.9574 -2.18267,-0.36 -3.74934,2.4747 -2.22534,4.1294 4.512,4.9 12.25067,6.86 17.436,7.78 -0.51333,196.0533 -19.59333,455.7333 -22.30133,487.96 -1.904,22.6533 -1.14,45.4133 2.64133,67.84 3.476,20.6133 7.33067,51.2266 8.87334,97.7333 1.34666,40.6666 -8.47867,162.0533 -12.10667,204.1866 -1.73467,20.1467 -2.21733,40.4134 -2.21733,60.64 0,39.04 4.332,68.5067 6.35466,103.3067 0.26534,4.5467 -1.56533,18 -0.78133,28.96 2.07467,29.0667 6.064,77.2397 3.968,108.7199 -0.67467,10.1604 -3.724,17.787 -18.876,20.6802 -2.75733,0.5198 -5.104,0.7334 -7.19333,0.7334 -5.472,0 -9.184,-1.4538 -13.96,-2.5866 -5.876,1.4934 -11.596,2.2131 -16.73734,2.2131 -7.41066,0 -13.62133,-1.5068 -17.37466,-4.4136 -3.90534,1.0939 -7.83067,1.5469 -11.528,1.5469 -8.076,0 -15.07334,-2.1734 -18.43467,-4.7068 -2.304,0.2932 -4.496,0.4266 -6.568,0.4266 -9.62266,0 -16.66666,-2.9463 -20.536,-7.3062 0,0 -24.41466,-7.9734 -12.02933,-36.7469 8.7,-20.2265 55.73333,-74.6267 62.92133,-95.0667 2.736,-44.28 -26.14267,-133.1866 -28.49733,-146.3066 -14.40667,-80.3067 -28.88533,-163.7467 -27.07333,-245.5334 0.45466,-20.72 6.40933,-80.1999 9.60266,-100.6933 1.328,-8.52 1.444,-20.48 0.50267,-33.2133 -5.03467,-68.1067 -35.02667,-158.6933 -51.16533,-295.1867 -16.14,-136.48 -15.93867,-186.08 -3.99067,-285.3693 11.948,-99.284 42.61467,-199.404 42.61467,-309.71066 0,-110.29333 -8.68534,-157.42666 -11.50667,-172.50666 -2.82267,-15.09333 -7.95867,-28.64 -13.83733,-44.73333 -0.23334,-0.62667 -0.83734,-1.2 -1.11467,-1.2 l -0.136,0.12 c -1.096,6.34666 -0.83467,35.49333 -14.112,97.62666 -19.344,90.52 -32.484,99.18666 -47.84667,186.17329 -15.93066,90.2134 -50.92399,150.1867 -73.06933,242.344 -0.41333,1.6694 -3.98666,19.0374 -3.09333,31.7294 2.076,29.5213 -13.07467,70.9 -22.048,98.8066 -5.276,16.4134 -9.172,35.0267 -19.36533,51.52 -6.44534,10.44 -16.60134,14.8134 -22.31867,14.8134 -1.68533,0 -2.984,-0.3734 -3.69067,-1.0934 -1.128,6.0134 -12.48266,16.0667 -22.08399,16.0667 -2.80934,0 -5.46667,-0.8533 -7.676,-2.9333 0,0 -7.788,6.72 -16.19867,6.72 -4.75867,0 -9.716,-2.1467 -13.57733,-8.88 -9.59467,-3.4134 -13.39467,-14.1067 -13.148,-23.4134 0.544,-20.6266 6.52133,-42.7866 12.432,-65.3466 1.21466,-4.64 11.644,-41.9467 9.69866,-41.96 l -0.056,0.013 c -3.824,1.2133 -12.928,17.12 -14.772,20.3067 -2.60933,4.52 -11.96933,22.36 -26.64666,23.28 -0.50054,0.027 -0.976,0.04 -1.4276,0.04 -7.1188,0 -8.16507,-3.84 -4.18174,-10.7467 10.638,-16.9733 21.66267,-47.26 31.24667,-61.848 13.90133,-21.16 27.90667,-30.4933 40.68267,-37.8933 6.27733,-3.6374 11.29066,-8.6467 14.65333,-14.4667 1.81733,-3.1467 2.952,-6.692 3.77466,-10.2307 13.19334,-56.7613 14.02667,-86.9746 25.97734,-159.9613 10.71466,-65.4533 30.33466,-104.95999 46.356,-186.51999 16.35866,-83.28 23.34266,-91.26667 28.85466,-141.66666 19.11467,-174.78667 78.53867,-191.66667 99.16133,-203.64 23.64267,-13.72 82.852,-30.52 121.824,-53.38666 22.04133,-12.93334 21.828,-28.96 21.82667,-48.22667 -10e-4,-8.08 -10e-4,-18.89333 -0.003,-29.17333 -2.71333,-1.61334 -5.40667,-3.28 -8.03333,-5.09334 l 10e-4,34.26667 v 0.54667 c 0.004,18.88 0.007,30.26666 -17.86,40.74666 -21.49867,12.62667 -49.57867,23.44 -74.35333,32.98667 -19.65333,7.57333 -36.628,14.10666 -47.43467,20.38666 -1.53466,0.89334 -3.3,1.8 -5.25333,2.82667 -25.89867,13.50667 -79.78933,41.62667 -97.86266,206.88 -3.08534,28.21333 -6.69067,43.10666 -12.14667,65.63999 -4.24933,17.54667 -9.53733,39.38667 -16.604,75.36 -7.792,39.66667 -16.304,68.82667 -24.536,97.01333 -8.39733,28.77333 -16.32933,55.93333 -21.86533,89.74663 -4.51867,27.6 -7.46134,49.16 -10.05734,68.1867 -4.28933,31.4267 -7.67733,56.24 -15.81733,91.2627 -0.796,3.4253 -1.72,5.9773 -2.90533,8.0293 -2.69467,4.664 -6.74933,8.652 -11.72533,11.5347 -13.124,7.6026 -28.38267,17.6226 -43.36934,40.4346 -5.142,7.8267 -10.35346,19.1867 -15.8696,31.2187 -5.13586,11.1867 -10.44573,22.76 -15.4692,30.7867 l -0.0776,0.12 -0.0724,0.12 c -1.4068,2.44 -5.68546,9.8533 -1.81933,16.5466 1.64693,2.8534 5.23227,6.2534 12.95787,6.2534 0.6088,0 1.252,-0.027 1.92706,-0.067 10.43907,-0.64 18.45654,-7.1733 24.0752,-13.8133 -0.26,0.96 -0.45466,1.68 -0.57066,2.12 l -0.59734,2.28 c -5.67466,21.6533 -11.5432,44.0266 -12.09413,64.8933 -0.2772,10.48 3.7528,24.1467 15.7248,30.0267 5.94533,8.6133 13.52,10.5066 19.032,10.5066 6.58133,0 12.55067,-2.7466 16.52667,-5.16 2.272,0.92 4.74266,1.3867 7.348,1.3867 9.96933,0 20.85333,-7.2133 26.42533,-14.9867 8.49066,-0.2933 20.79866,-6.1466 28.504,-18.6133 8.44933,-13.68 12.87066,-28.7333 16.77066,-42.0267 1.124,-3.8266 2.23067,-7.6 3.40667,-11.2533 1.03467,-3.2267 2.15067,-6.6133 3.31467,-10.16 9.376,-28.5067 21.04533,-64.0027 19.09866,-91.6773 -0.776,-11.0307 2.284,-26.7947 2.87867,-29.2374 9.85867,-41.0186 22.38133,-75.872 34.492,-109.5786 15.32266,-42.6534 29.796,-82.9334 38.69066,-133.2934 8.11734,-45.95996 15.71467,-70.15996 23.75867,-95.77329 7.348,-23.4 14.94533,-47.6 24.03333,-90.12 5.75867,-26.94667 8.98934,-47.64 10.89734,-63.09333 0.98933,3.65333 1.848,7.32 2.548,11.06666 7.544,40.33334 11.36933,97.88 11.36933,171.04 0,69.51996 -12.42,135.51996 -24.43067,199.34666 -7.07466,37.6 -13.75733,73.1067 -18.12533,109.404 -11.716,97.3693 -12.61467,146.876 3.988,287.276 8.72533,73.7867 21.71467,135.3333 32.15067,184.8 8.95866,42.44 16.696,79.1067 18.98133,110.04 0.92533,12.52 0.77333,23.6533 -0.428,31.3733 -3.352,21.52 -9.24,80.88 -9.69733,101.76 -1.88267,85 13.56666,171.1333 27.19733,247.12 0.596,3.3333 2.40133,9.8667 5.13466,19.7733 8.11067,29.4 24.888,90.2134 23.316,123.4534 -4.044,10.0666 -18.8,30.1066 -31.86933,47.8533 -13.38266,18.1867 -26.02266,35.3467 -30.47733,45.7065 -5.00933,11.6402 -5.51467,22.0402 -1.5,30.9334 4.31333,9.5333 12.45467,14.0932 16.352,15.8136 5.80533,5.5068 14.62,8.5068 25.09333,8.5068 1.52133,0 3.08533,-0.054 4.67467,-0.1871 5.272,2.8 12.71333,4.4667 20.328,4.4667 3.44533,0 6.83866,-0.3334 10.12933,-0.9864 4.896,2.5462 11.29067,3.8666 18.77333,3.8666 5.264,0 10.99867,-0.6802 16.70134,-1.9734 0.44266,0.1068 0.88,0.2265 1.312,0.3469 3.51333,0.9333 7.49466,2 12.684,2 2.744,0 5.59066,-0.2933 8.70133,-0.8803 21.11333,-4.0401 24.656,-17.1068 25.38533,-28.0401 1.93067,-29.0135 -1.11066,-70.5999 -3.33066,-100.9732 l -0.64267,-8.8533 c -0.44533,-6.24 0.044,-13.56 0.43867,-19.44 0.26933,-4.0134 0.48133,-7.1867 0.352,-9.4134 -0.71334,-12.2666 -1.72267,-24.0133 -2.69867,-35.3733 -1.79067,-20.8533 -3.644,-42.4133 -3.644,-67.4667 0,-23.5733 0.696,-42.6133 2.188,-59.9466 2.28267,-26.5067 13.59467,-160.9734 12.132,-205.1467 -1.26533,-38.16 -4.204,-70.48 -8.98133,-98.8 -3.58267,-21.2533 -4.44267,-43.4 -2.55734,-65.8266 3.62267,-43.12 21.82267,-298.3334 22.33067,-488.4267 h 12.69333 c 0.53733,212.72 22.112,485.8 22.332,488.4267 1.88533,22.4266 1.024,44.5733 -2.55733,65.8266 -4.77734,28.32 -7.716,60.64 -8.98134,98.8 -1.46266,44.1733 9.84934,178.64 12.132,205.1467 1.492,17.3333 2.18667,36.3733 2.18667,59.9466 0,25.0534 -1.852,46.6134 -3.64267,67.4667 -0.976,11.36 -1.98533,23.1067 -2.69866,35.3733 -0.12934,2.2267 0.0827,5.4 0.352,9.4134 0.39333,5.88 0.884,13.2 0.43733,19.44 l -0.728,10 c -2.212,30.04 -5.24133,71.1734 -3.33467,99.8265 1.048,15.7204 9.36134,24.5333 26.164,27.7469 3.092,0.5864 5.95467,0.8667 8.74934,0.8667 4.684,0 8.33733,-0.8 11.86933,-1.5735 0.624,-0.1333 1.25733,-0.2666 1.90533,-0.413 4.52534,1.9729 9.708,3 15.172,3 7.10534,0 14.116,-1.7339 19.57734,-4.7339 3.38933,0.8803 7.00933,1.3333 10.664,1.3333 7.17066,0 14.00399,-1.6796 19.62666,-4.7728 1.836,0.2796 3.69467,0.4266 5.55333,0.4266 9.22534,0 17.73867,-3.5068 23.36934,-9.5068 4.42133,-1.4266 12.37733,-5.0798 17.012,-13.6266 4.75333,-8.7734 4.44933,-19.7204 -0.904,-32.5333 -4.40934,-10.5735 -17.28,-28.0135 -30.90667,-46.4668 -12.90533,-17.4933 -27.47333,-37.2267 -31.47333,-47.1733 -1.572,-33.24 15.204,-94.0534 23.316,-123.4534 2.73333,-9.9066 4.53866,-16.44 5.13333,-19.7733 13.63067,-75.9867 29.08133,-162.12 27.19867,-247.12 -0.45867,-20.88 -6.34534,-80.24 -9.69734,-101.76 -1.20133,-7.7066 -1.35466,-18.8533 -0.428,-31.3733 2.23067,-30.1867 10.512,-68.8533 20.1,-113.6133 11.73334,-54.7867 25.032,-116.8667 31.052,-181.4267 11.54534,-123.8 12.552,-196.1867 3.99067,-286.8707 -3.61733,-38.3026 -11.14267,-79.076 -19.112,-122.2493 -11.53733,-62.52 -23.468,-127.16 -23.468,-186.70666 0,-101 6.67467,-142.93333 12.92933,-174.30666 0.54267,-2.72 1.12,-5.32 1.71867,-7.78667 1.90667,15.45333 5.13733,36.13333 10.89467,63.08 9.15466,42.84 16.56666,67.32 23.73466,91.01333 7.75734,25.62667 15.084,49.82667 23.34,94.93336 9.91467,54.16 24.97067,95.8133 39.53067,136.0933 11.72933,32.4533 23.85733,66.0133 33.62933,106.6733 0.66667,2.6894 3.85733,17.8494 3.26267,26.316 -2.10534,29.9454 11.06,70.7574 20.67333,100.5574 l 1.37067,4.2533 c 1.17466,3.6533 2.28133,7.4267 3.404,11.2533 3.90133,13.2934 8.32266,28.3467 16.772,42.0267 7.70533,12.4667 20.01333,18.32 28.504,18.6133 5.572,7.7734 16.456,14.9867 26.4253,14.9867 2.604,0 5.076,-0.4667 7.348,-1.3867 3.976,2.4134 9.944,5.16 16.5267,5.16 5.512,0 13.0853,-1.8933 19.0306,-10.5066 11.9747,-5.88 16.0027,-19.5467 15.7254,-30.0267 -0.5507,-20.8667 -6.4187,-43.24 -12.0934,-64.8933 l -0.5986,-2.28 c -0.1147,-0.44 -0.3094,-1.16 -0.5694,-2.12 5.6187,6.64 13.636,13.1733 24.0747,13.8133 0.6773,0.04 1.3187,0.067 1.928,0.067 7.724,0 11.3093,-3.4 12.9573,-6.2534 3.8654,-6.6933 -0.4133,-14.1066 -1.8186,-16.5466"
         style="fill:#4d5051;fill-opacity:1;fill-rule:nonzero;stroke:none;stroke-width:0.133333" />
      <path
         id="path45"
         d="m 728.67598,772.96005 c -6.22266,0 -11.26533,3.88 -11.26533,8.67999 0,4.77334 5.04267,8.65334 11.26533,8.65334 6.224,0 11.26667,-3.88 11.26667,-8.65334 0,-4.79999 -5.04267,-8.67999 -11.26667,-8.67999"
         style="fill:#4d5051;fill-opacity:1;fill-rule:nonzero;stroke:none;stroke-width:0.133333" />
      <path
         id="path46"
         d="m 551.60399,278.62672 c -2.29867,0.54667 -5.60667,0.73334 -8.18667,0.28 -1.03467,1.66667 -1.30133,4.64 -1.416,6.8 -0.35333,6.69334 2.59733,12.73334 9.98667,13.6 7.94533,0.93334 12.24133,-4.13333 13.10666,-10.89333 0.32534,-2.6 -10e-4,-7.33333 -0.26933,-8.01333 -4.30267,-3.04 -8.308,-2.94667 -13.22133,-1.77334"
         style="fill:#4d5051;fill-opacity:1;fill-rule:nonzero;stroke:none;stroke-width:0.133333" />
      <path
         id="path47"
         d="m 523.83199,263.16006 c 5.96266,-2.28 14.29466,-3.89334 18.95733,-4.38667 15.08,-1.6 31.376,4.32 37.56133,5.25333 5.48267,0.84 5.116,-9.37333 -2.38933,-11.77333 -13.07067,-4.2 -23.488,-5.38667 -36.87733,-2.70667 -11.764,2.34667 -21.35734,9.69334 -21.87467,10.89334 -0.99867,2.32 1.72933,3.89333 4.62267,2.72"
         style="fill:#4d5051;fill-opacity:1;fill-rule:nonzero;stroke:none;stroke-width:0.133333" />
      <path
         id="path48"
         d="m 671.69998,278.62672 c 2.29867,0.54667 5.60667,0.73334 8.18667,0.28 1.03467,1.66667 1.30267,4.64 1.416,6.8 0.35467,6.69334 -2.59733,12.73334 -9.98533,13.6 -7.94667,0.93334 -12.24134,-4.13333 -13.10667,-10.89333 -0.32533,-2.6 0,-7.33333 0.26933,-8.01333 4.30267,-3.04 8.308,-2.94667 13.22,-1.77334"
         style="fill:#4d5051;fill-opacity:1;fill-rule:nonzero;stroke:none;stroke-width:0.133333" />
      <path
         id="path49"
         d="m 699.47332,263.16006 c -5.96267,-2.28 -14.296,-3.89334 -18.95734,-4.38667 -15.08,-1.6 -31.376,4.32 -37.56133,5.25333 -5.48267,0.84 -5.116,-9.37333 2.38933,-11.77333 13.07067,-4.2 23.488,-5.38667 36.876,-2.70667 11.764,2.34667 21.35867,9.69334 21.876,10.89334 0.99867,2.32 -1.72933,3.89333 -4.62266,2.72"
         style="fill:#4d5051;fill-opacity:1;fill-rule:nonzero;stroke:none;stroke-width:0.133333" />
      <path
         id="path50"
         d="m 611.65998,360.62672 c -9.072,0 -16.17999,-3.45333 -19.71466,-5.17333 l -1.07333,-0.50667 c -2.00934,-0.94666 -2.88,-3.33333 -1.94267,-5.34666 0.94133,-2 3.33867,-2.88 5.33867,-1.94667 l 1.192,0.57333 c 5.59466,2.72 17.23733,8.38667 31.40266,-0.0533 1.90267,-1.13333 4.368,-0.50667 5.50533,1.4 1.13734,1.90667 0.512,4.37333 -1.39333,5.50667 -6.95733,4.14666 -13.53467,5.54666 -19.31467,5.54666"
         style="fill:#4d5051;fill-opacity:1;fill-rule:nonzero;stroke:none;stroke-width:0.133333" />
      <path
         id="path51"
         d="m 611.51198,392.88005 c -2.976,0 -5.61066,-0.4 -7.94133,-0.74666 -2.19733,-0.33334 -4.08666,-0.6 -5.89866,-0.54667 -8.212,0.33333 -14.324,0.81333 -17.97734,1.10667 l -2.14533,0.17333 c -2.18533,0.16 -4.136,-1.50667 -4.292,-3.72 -0.16,-2.21333 1.50667,-4.13333 3.72,-4.29333 l 2.07867,-0.16 c 3.712,-0.30667 9.924,-0.8 18.29866,-1.13334 2.572,-0.08 5.02533,0.26667 7.40133,0.62667 2.18534,0.32 4.56934,0.69333 6.85334,0.65333 1.408,0 3.15866,-0.32 5.01466,-0.64 2.47334,-0.44 5.04134,-0.89333 7.656,-0.82666 6.932,0.17333 13.89334,0.52 20.69067,1.04 2.21333,0.16 3.87067,2.09333 3.704,4.30666 -0.16667,2.21334 -2.12667,3.86667 -4.308,3.70667 -6.66667,-0.50667 -13.492,-0.85333 -20.28667,-1.02667 -1.83333,-0.0533 -3.972,0.33334 -6.056,0.70667 -2.10666,0.37333 -4.28666,0.76 -6.384,0.77333 h -0.128"
         style="fill:#4d5051;fill-opacity:1;fill-rule:nonzero;stroke:none;stroke-width:0.133333" />
      <path
         id="path52"
         d="m 612.05065,413.33339 c -7.14667,0 -12.896,-1.57334 -13.27066,-1.68 -1.88534,-0.52 -2.98667,-2.46667 -2.46134,-4.36 0.52134,-1.88 2.484,-2.98667 4.35867,-2.46667 0.12666,0.0267 12.464,3.36 22.004,-0.33333 1.81733,-0.70667 3.876,0.2 4.58533,2.02666 0.708,1.82667 -0.19867,3.88 -2.024,4.58667 -4.34267,1.68 -9.00667,2.22667 -13.192,2.22667"
         style="fill:#4d5051;fill-opacity:1;fill-rule:nonzero;stroke:none;stroke-width:0.133333" />
      <path
         id="path53"
         d="m 578.80399,292.42672 c -1.38134,0 -2.72534,-0.70666 -3.47334,-1.98666 -2.12666,-3.64 -9.97066,-9.56 -20.04,-10.70667 -6.72666,-0.78667 -16.71066,0.45333 -26.208,10.54667 -1.52133,1.61333 -4.064,1.69333 -5.67866,0.17333 -1.616,-1.52 -1.69334,-4.06667 -0.17334,-5.68 11.78,-12.52 24.44134,-13.98667 32.964,-13.02667 12.18667,1.38667 22.528,8.57334 26.07334,14.62667 1.11866,1.92 0.47466,4.38667 -1.44,5.50667 -0.63734,0.36 -1.336,0.54666 -2.024,0.54666"
         style="fill:#4d5051;fill-opacity:1;fill-rule:nonzero;stroke:none;stroke-width:0.133333" />
      <path
         id="path54"
         d="m 644.50265,292.42672 c -0.71067,0 -1.43067,-0.18666 -2.084,-0.58666 -1.89467,-1.16 -2.496,-3.62667 -1.34267,-5.52 3.688,-6.05334 14.25067,-13.2 26.564,-14.48 8.39467,-0.86667 20.868,0.65333 32.43467,12.93333 1.52,1.61333 1.44133,4.16 -0.17333,5.68 -1.61334,1.52 -4.15867,1.44 -5.67867,-0.17333 -7.472,-7.93334 -16.136,-11.44 -25.748,-10.45334 -9.78533,1.02667 -18.21467,6.85334 -20.536,10.66667 -0.75733,1.25333 -2.07867,1.93333 -3.436,1.93333"
         style="fill:#4d5051;fill-opacity:1;fill-rule:nonzero;stroke:none;stroke-width:0.133333" />
    </g>
  </g>
</svg>
